<svg height="289" width="300" style="width: 300px; height: 289px; position: absolute; top: 50%; left: 50%; transform: translate(-50%, -50%) scale(1); z-index: 0; cursor: pointer; overflow: visible;"><defs id="SvgjsDefs1001"></defs><g id="SvgjsG1007" featurekey="rootContainer" transform="matrix(1,0,0,1,0,0)" fill="#e84545"><path xmlns="http://www.w3.org/2000/svg" fill-rule="evenodd" d="M5,65 L150,0 L295, 65 L150, 10 z M5,209 L150,289 L295,204 L150, 279 z"></path></g><g id="SvgjsG1008" featurekey="nameFeature-0" transform="matrix(2.7027027027027026,0,0,2.7027027027027026,-8.75676644814981,61.13513431033573)" fill="#e84545"><path d="M7.28 20.6 l-0.08 3.88 c1.04 -1.88 3.2 -3.92 7.04 -3.92 c6.56 0 6.88 4.68 6.88 6.96 c0 0.4 -0.16 7.16 -0.16 8.52 c0 0.76 0.04 3.56 0.12 4.16 c-0.56 -0.16 -1.04 -0.24 -2.04 -0.24 c-1.04 0 -1.52 0.08 -2.12 0.24 c0.36 -4.28 0.36 -8.68 0.36 -9.4 c0 -4 -0.2 -7.8 -4.64 -7.8 c-1.96 0 -3.28 0.84 -4.08 1.76 c-0.76 0.88 -1.36 1.88 -1.36 5.52 c0 5.84 0.12 7.52 0.28 9.92 c-0.6 -0.16 -1.2 -0.24 -2.16 -0.24 s-1.48 0.08 -2.08 0.24 c0.16 -3.24 0.28 -7.12 0.28 -10.36 l0 -8.68 c0 -5.4 -0.08 -7 -0.2 -10.48 c0.56 0.08 1.12 0.24 2.08 0.24 c0.92 0 1.56 -0.16 2.16 -0.24 c-0.04 0.6 -0.2 3.16 -0.2 4.48 c-0.04 3.44 -0.04 3.8 -0.08 5.44 z M28.28 30.04 c0 -4.56 -0.16 -7.12 -0.32 -9.2 c0.56 0.16 1.04 0.24 1.96 0.24 s1.48 -0.08 2.08 -0.24 c-0.12 2.2 -0.24 4 -0.24 10.52 c0 1.84 0.04 2.52 0.28 8.84 c-0.52 -0.16 -0.92 -0.24 -1.96 -0.24 c-1.12 0 -1.48 0.08 -2.08 0.24 c0.16 -3.04 0.28 -7.04 0.28 -10.16 z M32.28 14.280000000000001 c0 1.2 -1 2.16 -2.2 2.16 c-1.16 0 -2.16 -0.96 -2.16 -2.16 c0 -1.24 1 -2.2 2.16 -2.2 c1.2 0 2.2 0.96 2.2 2.2 z M56.6 39.84 l0 0.36 c-0.68 -0.12 -1.44 -0.24 -2.56 -0.24 c-1.08 0 -1.84 0.12 -2.52 0.24 c-2.44 -3.44 -4.28 -5.48 -7.24 -8.84 c-0.32 -0.32 -0.72 -0.64 -1 -0.64 c-0.32 0 -0.28 0.36 -0.28 0.68 l0.04 3.52 c0 1.72 0.28 5 0.32 5.28 c-0.6 -0.12 -1.24 -0.24 -2.12 -0.24 s-1.44 0.08 -2 0.24 c0.16 -4.8 0.16 -9.56 0.16 -14.4 c0 -4.72 0 -10.48 -0.16 -15.12 c0.6 0.12 1.2 0.24 2.12 0.24 s1.48 -0.12 2.08 -0.24 c-0.2 2.92 -0.36 5.84 -0.36 8.8 c0 2.28 -0.12 4.76 -0.12 7.12 c0 0.64 0.04 1.92 0.04 2.44 c0 0.24 0.16 0.32 0.32 0.32 s0.72 -0.52 1.08 -0.84 c1.96 -1.8 5.56 -5.12 7.4 -7.68 c0.6 0.2 1.32 0.24 1.96 0.24 c0.96 0 1.68 -0.12 2.2 -0.24 l-9.12 7.96 l6.24 7.32 z M61.64 30.04 c0 -4.56 -0.16 -7.12 -0.32 -9.2 c0.56 0.16 1.04 0.24 1.96 0.24 s1.48 -0.08 2.08 -0.24 c-0.12 2.2 -0.24 4 -0.24 10.52 c0 1.84 0.04 2.52 0.28 8.84 c-0.52 -0.16 -0.92 -0.24 -1.96 -0.24 c-1.12 0 -1.48 0.08 -2.08 0.24 c0.16 -3.04 0.28 -7.04 0.28 -10.16 z M65.64 14.280000000000001 c0 1.2 -1 2.16 -2.2 2.16 c-1.16 0 -2.16 -0.96 -2.16 -2.16 c0 -1.24 1 -2.2 2.16 -2.2 c1.2 0 2.2 0.96 2.2 2.2 z M72.56 29.2 c0 -2.64 -0.12 -5.72 -0.2 -8.52 c0.72 0.12 1.24 0.24 2 0.24 s1.28 -0.12 1.96 -0.24 c-0.04 0.6 -0.16 3.24 -0.2 3.8 c1.04 -1.88 3.24 -3.92 7.04 -3.92 c6.56 0 6.88 4.68 6.88 6.96 c0 0.4 -0.16 7.16 -0.16 8.52 c0 0.76 0.04 3.56 0.12 4.16 c-0.56 -0.16 -1.04 -0.24 -2.04 -0.24 c-1.04 0 -1.52 0.08 -2.12 0.24 c0.36 -4.28 0.36 -8.68 0.36 -9.4 c0 -4 -0.2 -7.8 -4.64 -7.8 c-2.12 0 -3.8 0.96 -4.76 2.76 c-0.72 1.4 -0.72 5.92 -0.72 7.8 c0 3.12 0.2 5.16 0.32 6.64 c-0.56 -0.12 -1.2 -0.24 -2.12 -0.24 s-1.52 0.12 -2.12 0.24 c0.2 -2.44 0.4 -5 0.4 -11 z M95.96 27 c0 -4.24 3.52 -6.52 7.8 -6.52 c0.92 0 1.76 0.04 2.68 0.2 c2.12 0.36 2.6 0.4 4.16 0.4 c1.28 0 1.68 0 3.64 -0.16 c-0.04 0.32 -0.12 0.68 -0.12 1 c0 0.36 0.08 0.68 0.12 1.04 c-1.04 -0.08 -2.56 -0.08 -3.68 -0.08 c0.96 0.84 1.68 2.12 1.68 3.84 c0 4.24 -3.48 6.56 -8.04 6.56 c-0.44 0 -2.72 -0.16 -2.8 -0.16 c-1.16 0 -1.76 0.96 -1.76 1.92 c0 1.08 0.28 2.12 4.68 2.12 c0.44 0 2.44 -0.04 2.84 -0.04 c3.4 0.08 4.6 0.8 5.44 1.56 c1 0.88 1.6 2.2 1.6 3.76 c0 2.88 -2.12 8.6 -10.56 8.6 c-6.44 0 -8.48 -3.32 -8.48 -5.96 c0 -3.68 3.56 -4.92 4.4 -5.24 c-2.6 -0.72 -2.96 -2.24 -2.96 -3.32 c0 -2.68 2.56 -3.76 3.24 -3.92 c-2.76 -1.04 -3.88 -3.16 -3.88 -5.6 z M103.92 31.92 c3.64 0 4.52 -3.08 4.52 -5.28 c0 -3.48 -2.24 -4.8 -4.32 -4.8 c-4 0 -4.36 3.76 -4.36 5.28 c0 3.36 1.88 4.8 4.16 4.8 z M104.48 49.4 c4.16 0 6.4 -2.36 6.4 -5.04 c0 -3.72 -3.96 -4.32 -6.48 -4.32 c-0.96 0 -6.24 0 -6.24 4.6 c0 2.96 2.56 4.76 6.32 4.76 z"></path></g></svg>